<svg width="392" height="312" viewBox="0 0 392 312" fill="none" xmlns="http://www.w3.org/2000/svg">
<path d="M207.76 21.5833C195.216 13.2259 176.212 12.7633 163.072 17.5143C139.552 26.0129 142.688 44.9543 122.304 58.2823C101.92 71.6103 82.3199 66.9063 62.7199 84.2014C43.1199 101.496 41.3481 134.228 49.3919 149.54C57.4358 164.851 66.6399 176.086 58.7999 202.436C50.9599 228.787 51.7439 259.394 83.1039 275.505C114.464 291.616 138.768 257.269 159.152 264.333C179.536 271.397 217.952 302.671 260.288 293.341C302.624 284.012 283.808 251.915 311.248 242.781C338.688 233.647 354.368 202.115 344.96 168.819C335.552 135.522 312.032 129.117 317.52 108.176C321.659 92.3628 327.21 77.1454 316.658 61.9201C303.039 42.2731 279.731 33.8451 257.152 35.8364C248.74 36.6204 239.12 36.8791 230.331 34.8407C220.343 32.5044 215.725 26.8988 207.76 21.5833Z" fill="#1760F3"/>
<path opacity="0.7" d="M207.76 21.5833C195.216 13.2259 176.212 12.7633 163.072 17.5143C139.552 26.0129 142.688 44.9543 122.304 58.2823C101.92 71.6103 82.3199 66.9063 62.7199 84.2014C43.1199 101.496 41.3481 134.228 49.3919 149.54C57.4358 164.851 66.6399 176.086 58.7999 202.436C50.9599 228.787 51.7439 259.394 83.1039 275.505C114.464 291.616 138.768 257.269 159.152 264.333C179.536 271.397 217.952 302.671 260.288 293.341C302.624 284.012 283.808 251.915 311.248 242.781C338.688 233.647 354.368 202.115 344.96 168.819C335.552 135.522 312.032 129.117 317.52 108.176C321.659 92.3628 327.21 77.1454 316.658 61.9201C303.039 42.2731 279.731 33.8451 257.152 35.8364C248.74 36.6204 239.12 36.8791 230.331 34.8407C220.343 32.5044 215.725 26.8988 207.76 21.5833Z" fill="white"/>
<path d="M329.037 138.297L197.192 169.524L197.066 169.438L317.214 109.54C317.308 109.085 317.395 108.631 317.52 108.16C319.441 100.814 321.667 93.5936 322.443 86.4435L197.137 168.834H196.996L307.908 51.924C303.018 47.4977 297.442 43.8941 291.397 41.2538L196.854 168.207H196.706L254.165 36.048C248.077 36.5573 241.953 36.468 235.882 35.7815L196.376 167.713L196.235 167.784L205.275 20.0701C199.574 17.0507 193.314 15.236 186.882 14.7389L195.749 167.415L195.647 167.525L152.817 22.9317C146.765 27.4554 143.354 33.1237 139.709 38.9723L195.067 167.352L195.004 167.486L116.604 61.5594C111.341 64.1462 105.823 66.1799 100.14 67.6275L194.432 167.517V167.674L65.1817 82.1472C64.3977 82.7979 63.5431 83.4722 62.7199 84.1935C58.6403 87.8361 55.2144 92.1503 52.5906 96.9491L193.828 167.909L193.875 168.05L45.0564 132.323C45.519 139.011 47.0399 145.024 49.3919 149.532C49.7839 150.316 50.1759 151.022 50.5758 151.751L193.428 168.466L193.515 168.591L61.8026 183.597C61.7787 189.437 60.9261 195.244 59.2703 200.845L193.272 169.108L193.397 169.195L55.3268 238.038C56.2349 244.507 58.4174 250.732 61.7478 256.352L193.295 169.822H193.436L90.4186 278.414C98.6428 280.766 106.365 279.982 113.649 277.779L193.577 170.449H193.726L153.319 263.353C155.304 263.352 157.275 263.68 159.152 264.325C161.251 265.072 163.31 265.925 165.322 266.881L194.056 170.943L194.197 170.872L187.619 278.39C191.939 280.593 196.51 282.812 201.284 284.882L194.683 171.241L194.785 171.131L231.178 293.984C236.959 294.913 242.823 295.221 248.669 294.901L195.357 171.288L195.42 171.155L279.653 284.992C284.96 280.868 287.932 275.944 290.135 270.88L196 171.139V170.982L307.061 244.49C308.4 243.815 309.786 243.239 311.209 242.765C316.275 241.086 321.039 238.606 325.321 235.419L196.604 170.747L196.557 170.606L345.14 206.27C346.879 200.277 347.737 194.063 347.688 187.823L197.003 170.19L196.917 170.065L339.096 153.868C336.21 148.39 332.844 143.18 329.037 138.297ZM193.342 169.108L193.797 168.999L193.46 169.171L193.342 169.108ZM193.515 169.783H193.374L193.773 169.516L193.515 169.783ZM193.766 170.332H193.64L193.922 169.955L193.766 170.332ZM193.648 168.544L193.562 168.45L194.032 168.505L193.648 168.544ZM194.228 170.739L194.118 170.81L194.252 170.355L194.228 170.739ZM194.001 168.042L193.954 167.925L194.377 168.136L194.001 168.042ZM195.788 167.486V167.956L195.678 167.595L195.788 167.486ZM195.138 167.407L195.326 167.846L195.098 167.54L195.138 167.407ZM194.502 167.564L194.824 167.909L194.51 167.697L194.502 167.564ZM194.706 171.108V170.637L194.816 170.998L194.706 171.108ZM195.357 171.186L195.169 170.747L195.396 171.053L195.357 171.186ZM195.286 169.955H195.059L194.855 169.853L194.698 169.689L194.612 169.477V169.25L194.675 169.03L194.816 168.85L195.004 168.724L195.224 168.669H195.451L195.655 168.771L195.812 168.936L195.898 169.148V169.375L195.835 169.595L195.694 169.775L195.506 169.9L195.286 169.955ZM195.671 170.684L195.984 170.896V171.029L195.671 170.684ZM196.949 168.842H197.09L196.69 169.108L196.949 168.842ZM196.698 168.293H196.823L196.541 168.669L196.698 168.293ZM196.266 167.854L196.376 167.784L196.243 168.23L196.266 167.854ZM196.118 170.457L196.494 170.551L196.541 170.669L196.118 170.457ZM196.462 170.088L196.784 170.112L196.87 170.206L196.462 170.088ZM196.666 169.626L197.003 169.453L197.121 169.516L196.666 169.626Z" fill="white"/>
<path d="M193.648 299.566C261.411 299.566 316.344 296.737 316.344 293.247C316.344 289.757 261.411 286.928 193.648 286.928C125.885 286.928 70.952 289.757 70.952 293.247C70.952 296.737 125.885 299.566 193.648 299.566Z" fill="#263238"/>
<path d="M121.395 181.206H272.95C273.842 181.206 274.697 181.56 275.328 182.191C275.959 182.822 276.313 183.677 276.313 184.569V281.863H118.023V184.569C118.023 184.127 118.111 183.689 118.28 183.28C118.45 182.872 118.698 182.5 119.011 182.188C119.324 181.876 119.696 181.628 120.105 181.459C120.514 181.291 120.952 181.205 121.395 181.206Z" fill="#1760F3" stroke="#263238" stroke-width="0.787564" stroke-linecap="round" stroke-linejoin="round"/>
<path d="M129.525 188.842H264.82C265.261 188.842 265.699 188.929 266.107 189.098C266.515 189.267 266.886 189.515 267.198 189.827C267.51 190.139 267.758 190.51 267.927 190.918C268.096 191.326 268.183 191.763 268.183 192.205V283.22H126.154V192.213C126.152 191.77 126.239 191.331 126.408 190.922C126.577 190.512 126.825 190.14 127.139 189.827C127.452 189.514 127.824 189.265 128.233 189.096C128.643 188.927 129.082 188.841 129.525 188.842Z" fill="#263238" stroke="#263238" stroke-width="0.787564" stroke-linecap="round" stroke-linejoin="round"/>
<path d="M274.957 289.993H112.339C104.852 289.993 98.7841 285.462 98.7841 279.872H288.512C288.512 285.462 282.444 289.993 274.957 289.993Z" fill="#1760F3" stroke="#263238" stroke-width="0.787564" stroke-linecap="round" stroke-linejoin="round"/>
<path d="M196.494 88.5211C186.051 98.4543 159.34 108.49 128.192 129.775C128.192 129.775 130.136 201.699 196.494 241.017V88.5211Z" fill="#1760F3" stroke="#263238" stroke-width="0.787564" stroke-linecap="round" stroke-linejoin="round"/>
<path d="M196.494 88.5212C206.929 98.4545 233.648 108.49 264.796 129.775C264.796 129.775 262.852 201.699 196.494 241.017V88.5212Z" fill="#263238" stroke="#263238" stroke-width="0.787564" stroke-linecap="round" stroke-linejoin="round"/>
<path d="M196.494 94.6442C183.895 103.574 162.061 112.088 133.202 131.806C133.202 131.806 135.005 198.446 196.494 234.894C257.983 198.462 259.786 131.806 259.786 131.806C230.919 112.096 209.187 103.574 196.494 94.6442Z" fill="#263238" stroke="#263238" stroke-width="0.787564" stroke-linecap="round" stroke-linejoin="round"/>
<path d="M248.998 124.726C204.969 138.054 171.382 176.745 156.11 197.152C166.615 212.564 180.408 225.454 196.494 234.894C257.983 198.461 259.786 131.806 259.786 131.806C256.07 129.276 252.474 126.916 248.998 124.726Z" fill="#1760F3" stroke="#263238" stroke-width="0.787564" stroke-linecap="round" stroke-linejoin="round"/>
<path d="M220.469 161.841H173.264C172.224 161.841 171.227 161.428 170.492 160.693C169.757 159.958 169.344 158.961 169.344 157.921V135.702C169.466 128.488 172.417 121.609 177.563 116.55C182.708 111.491 189.635 108.656 196.851 108.656C204.066 108.656 210.993 111.491 216.139 116.55C221.284 121.609 224.235 128.488 224.357 135.702V157.921C224.357 158.955 223.949 159.947 223.22 160.682C222.492 161.416 221.503 161.833 220.469 161.841ZM177.215 154.001H216.549V135.702C216.446 130.554 214.329 125.652 210.652 122.048C206.975 118.443 202.031 116.424 196.882 116.424C191.733 116.424 186.789 118.443 183.112 122.048C179.435 125.652 177.318 130.554 177.215 135.702V154.001Z" fill="white" stroke="#263238" stroke-width="0.787564" stroke-linecap="round" stroke-linejoin="round"/>
<path d="M226.521 151.131H166.467V201.88H226.521V151.131Z" fill="white" stroke="#263238" stroke-width="0.787564" stroke-linecap="round" stroke-linejoin="round"/>
<path d="M202.735 172.205C202.735 171.049 202.428 169.914 201.847 168.916C201.265 167.917 200.429 167.09 199.424 166.519C198.419 165.949 197.281 165.655 196.125 165.667C194.97 165.68 193.838 165.998 192.845 166.59C191.853 167.183 191.035 168.027 190.475 169.039C189.916 170.05 189.634 171.191 189.659 172.347C189.684 173.502 190.015 174.63 190.618 175.616C191.221 176.602 192.074 177.411 193.091 177.96L191.994 189.485H200.398L199.301 177.96C200.34 177.401 201.208 176.571 201.813 175.557C202.418 174.544 202.736 173.385 202.735 172.205Z" fill="#263238" stroke="#263238" stroke-width="0.787564" stroke-linecap="round" stroke-linejoin="round"/>
<path d="M314.816 162.343L314.721 161.167" stroke="#263238" stroke-width="0.787564" stroke-linecap="round" stroke-linejoin="round"/>
<path d="M314.384 153.974C311.283 125.923 297.596 99.9122 275.882 80.8096C254.168 61.7071 225.916 50.8213 196.413 50.1892C166.909 49.5572 138.175 59.2221 115.588 77.3755C93.0004 95.529 78.1072 120.927 73.6949 148.817C73.3608 150.943 73.0998 153.076 72.9119 155.216" stroke="#263238" stroke-width="0.787564" stroke-linecap="round" stroke-linejoin="round" stroke-dasharray="2.37 2.37"/>
<path d="M72.5675 161.284L72.473 162.452" stroke="#263238" stroke-width="0.787564" stroke-linecap="round" stroke-linejoin="round"/>
<path d="M140.069 57.7413H94.6052C93.0162 57.7413 91.728 59.0295 91.728 60.6186V85.1813C91.728 86.7704 93.0162 88.0586 94.6052 88.0586H140.069C141.658 88.0586 142.947 86.7704 142.947 85.1813V60.6186C142.947 59.0295 141.658 57.7413 140.069 57.7413Z" fill="#263238" stroke="#263238" stroke-width="0.787564" stroke-linecap="round" stroke-linejoin="round"/>
<path d="M142.947 63.488H91.728V74.464H142.947V63.488Z" fill="#1760F3" stroke="#263238" stroke-width="0.787564" stroke-linecap="round" stroke-linejoin="round"/>
<path d="M132.135 83.2135C132.135 82.7902 132.01 82.3764 131.775 82.0244C131.539 81.6724 131.205 81.3981 130.814 81.2361C130.423 81.0741 129.993 81.0317 129.577 81.1143C129.162 81.1969 128.781 81.4007 128.482 81.7001C128.182 81.9994 127.978 82.3808 127.896 82.796C127.813 83.2111 127.856 83.6415 128.018 84.0326C128.18 84.4237 128.454 84.7579 128.806 84.9931C129.158 85.2283 129.572 85.3538 129.995 85.3538C130.563 85.3538 131.107 85.1283 131.508 84.7269C131.91 84.3256 132.135 83.7812 132.135 83.2135Z" fill="white" stroke="#263238" stroke-width="0.787564" stroke-linecap="round" stroke-linejoin="round"/>
<path d="M138.086 83.2135C138.086 82.7902 137.96 82.3764 137.725 82.0244C137.49 81.6724 137.156 81.3981 136.765 81.2361C136.374 81.0741 135.943 81.0317 135.528 81.1143C135.113 81.1969 134.731 81.4007 134.432 81.7001C134.133 81.9994 133.929 82.3808 133.846 82.796C133.764 83.2111 133.806 83.6415 133.968 84.0326C134.13 84.4237 134.404 84.7579 134.756 84.9931C135.108 85.2283 135.522 85.3538 135.946 85.3538C136.513 85.3538 137.058 85.1283 137.459 84.7269C137.86 84.3256 138.086 83.7812 138.086 83.2135Z" fill="white" stroke="#263238" stroke-width="0.787564" stroke-linecap="round" stroke-linejoin="round"/>
<path d="M225.063 37.4279H170.214V72.9901H225.063V37.4279Z" fill="#1760F3" stroke="#263238" stroke-width="0.787564" stroke-linecap="round" stroke-linejoin="round"/>
<path d="M222.578 39.6857H172.888V70.442H222.578V39.6857Z" fill="#263238" stroke="#263238" stroke-width="0.787564" stroke-linecap="round" stroke-linejoin="round"/>
<path d="M187.423 61.136C187.423 57.7805 184.695 52.0103 181.339 52.0103C177.984 52.0103 175.247 57.7805 175.247 61.136C175.247 64.4915 177.976 65.3226 181.339 65.3226C184.702 65.3226 187.423 64.468 187.423 61.136Z" fill="white" stroke="#263238" stroke-width="0.787564" stroke-linecap="round" stroke-linejoin="round"/>
<path d="M181.339 53.1235C183.651 53.1235 185.526 51.2492 185.526 48.937C185.526 46.6248 183.651 44.7504 181.339 44.7504C179.027 44.7504 177.153 46.6248 177.153 48.937C177.153 51.2492 179.027 53.1235 181.339 53.1235Z" fill="white" stroke="#263238" stroke-width="0.787564" stroke-linecap="round" stroke-linejoin="round"/>
<path d="M193.507 45.5423H203.644" stroke="white" stroke-width="1.57513" stroke-linecap="round" stroke-linejoin="round"/>
<path d="M193.507 49.9327H203.644" stroke="white" stroke-width="1.57513" stroke-linecap="round" stroke-linejoin="round"/>
<path d="M193.507 57.71H217.16" stroke="white" stroke-width="1.57513" stroke-linecap="round" stroke-linejoin="round"/>
<path d="M193.507 63.4567H217.16" stroke="white" stroke-width="1.57513" stroke-linecap="round" stroke-linejoin="round"/>
<path d="M301.503 90.2224L308.449 61.9592H287.375L301.503 90.2224Z" fill="#263238" stroke="#263238" stroke-width="0.787564" stroke-linecap="round" stroke-linejoin="round"/>
<path d="M301.503 90.2224L303.047 63.0333H289.633L301.503 90.2224Z" fill="#1760F3" stroke="#263238" stroke-width="0.787564" stroke-linecap="round" stroke-linejoin="round"/>
<path d="M301.503 90.2224L300.068 60.9165H286.654L301.503 90.2224Z" fill="#1760F3" stroke="#263238" stroke-width="0.787564" stroke-linecap="round" stroke-linejoin="round"/>
<path d="M276.462 59.5601L273.004 55.6479H254.8L263.338 90.2224H301.503L295.45 59.5601H276.462Z" fill="#263238" stroke="#263238" stroke-width="0.787564" stroke-linecap="round" stroke-linejoin="round"/>
</svg>
